<?xml version="1.0" standalone="no"?>
<!DOCTYPE svg PUBLIC "-//W3C//DTD SVG 20010904//EN"
 "http://www.w3.org/TR/2001/REC-SVG-20010904/DTD/svg10.dtd">
<svg version="1.0" xmlns="http://www.w3.org/2000/svg"
 width="256.000000pt" height="256.000000pt" viewBox="0 0 256.000000 256.000000"
 preserveAspectRatio="xMidYMid meet">
<metadata>
Created by potrace 1.11, written by Peter Selinger 2001-2013
</metadata>
<g transform="translate(0.000000,256.000000) scale(0.100000,-0.100000)"
fill="#000000" stroke="none">
<path d="M1068 2434 c-399 -78 -727 -351 -876 -729 -28 -70 -42 -119 -67 -240
-11 -49 -14 -277 -5 -325 5 -25 11 -65 15 -89 20 -138 110 -339 210 -472 316
-421 866 -581 1359 -395 244 93 455 284 575 524 34 67 86 215 96 272 3 19 10
64 16 100 11 61 7 339 -4 385 -3 11 -6 22 -6 25 -1 4 -1026 5 -1081 1 -13 -1
-15 -32 -15 -226 l0 -225 313 0 314 0 -7 -32 c-10 -51 -70 -169 -109 -215
-113 -131 -297 -205 -511 -205 -319 0 -596 219 -674 532 -24 98 -21 256 8 352
45 155 150 296 287 388 42 27 80 50 86 50 5 0 24 7 41 14 85 39 266 60 357 41
14 -2 39 -7 55 -11 56 -11 156 -56 215 -95 l58 -39 166 166 c91 91 166 169
166 173 0 22 -145 120 -259 176 -103 51 -161 70 -282 95 -108 22 -337 24 -441
4z"/>
</g>
</svg>
